<mxfile host="app.diagrams.net" agent="Mozilla/5.0 (Windows NT 10.0; Win64; x64) AppleWebKit/537.36 (KHTML, like Gecko) Chrome/133.0.0.0 Safari/537.36" version="26.0.13">
  <diagram name="第 1 页" id="mcWuw5X63R6qMNs64w8l">
    <mxGraphModel dx="1434" dy="746" grid="1" gridSize="10" guides="1" tooltips="1" connect="1" arrows="1" fold="1" page="1" pageScale="1" pageWidth="827" pageHeight="1169" math="0" shadow="0">
      <root>
        <mxCell id="0" />
        <mxCell id="1" parent="0" />
        <mxCell id="K03_Tw2up7xJoAG7XmoY-1" value="function Person () { }" style="shape=table;startSize=20;container=1;collapsible=0;childLayout=tableLayout;strokeColor=default;fontSize=16;fontColor=light-dark(#FFFFFF,#DB7093);" vertex="1" parent="1">
          <mxGeometry x="120" y="320" width="180" height="77" as="geometry" />
        </mxCell>
        <mxCell id="K03_Tw2up7xJoAG7XmoY-2" value="" style="shape=tableRow;horizontal=0;startSize=0;swimlaneHead=0;swimlaneBody=0;strokeColor=inherit;top=0;left=0;bottom=0;right=0;collapsible=0;dropTarget=0;fillColor=none;points=[[0,0.5],[1,0.5]];portConstraint=eastwest;fontSize=16;" vertex="1" parent="K03_Tw2up7xJoAG7XmoY-1">
          <mxGeometry y="20" width="180" height="57" as="geometry" />
        </mxCell>
        <mxCell id="K03_Tw2up7xJoAG7XmoY-3" value="&lt;div style=&quot;font-family: Consolas, &amp;quot;Courier New&amp;quot;, monospace; font-size: 14px; line-height: 19px; white-space: pre;&quot;&gt;&lt;span style=&quot;background-color: rgb(255, 255, 255);&quot;&gt;prototype&lt;/span&gt;&lt;/div&gt;" style="shape=partialRectangle;html=1;whiteSpace=wrap;connectable=0;strokeColor=inherit;overflow=hidden;fillColor=none;top=0;left=0;bottom=0;right=0;pointerEvents=1;fontSize=16;fontColor=#1A1A1A;" vertex="1" parent="K03_Tw2up7xJoAG7XmoY-2">
          <mxGeometry width="90" height="57" as="geometry">
            <mxRectangle width="90" height="57" as="alternateBounds" />
          </mxGeometry>
        </mxCell>
        <mxCell id="K03_Tw2up7xJoAG7XmoY-4" value="" style="shape=partialRectangle;html=1;whiteSpace=wrap;connectable=0;strokeColor=inherit;overflow=hidden;fillColor=none;top=0;left=0;bottom=0;right=0;pointerEvents=1;fontSize=16;" vertex="1" parent="K03_Tw2up7xJoAG7XmoY-2">
          <mxGeometry x="90" width="90" height="57" as="geometry">
            <mxRectangle width="90" height="57" as="alternateBounds" />
          </mxGeometry>
        </mxCell>
        <mxCell id="K03_Tw2up7xJoAG7XmoY-5" value="Person函数的原型对象" style="shape=table;startSize=30;container=1;collapsible=0;childLayout=tableLayout;strokeColor=default;fontSize=16;fontColor=light-dark(#FFFFFF,#DB7093);" vertex="1" parent="1">
          <mxGeometry x="100" y="60" width="390" height="217" as="geometry" />
        </mxCell>
        <mxCell id="K03_Tw2up7xJoAG7XmoY-6" value="" style="shape=tableRow;horizontal=0;startSize=0;swimlaneHead=0;swimlaneBody=0;strokeColor=inherit;top=0;left=0;bottom=0;right=0;collapsible=0;dropTarget=0;fillColor=none;points=[[0,0.5],[1,0.5]];portConstraint=eastwest;fontSize=16;" vertex="1" parent="K03_Tw2up7xJoAG7XmoY-5">
          <mxGeometry y="30" width="390" height="47" as="geometry" />
        </mxCell>
        <mxCell id="K03_Tw2up7xJoAG7XmoY-7" value="constructor对象" style="shape=partialRectangle;html=1;whiteSpace=wrap;connectable=0;strokeColor=inherit;overflow=hidden;fillColor=none;top=0;left=0;bottom=0;right=0;pointerEvents=1;fontSize=16;fontColor=#1A1A1A;" vertex="1" parent="K03_Tw2up7xJoAG7XmoY-6">
          <mxGeometry width="195" height="47" as="geometry">
            <mxRectangle width="195" height="47" as="alternateBounds" />
          </mxGeometry>
        </mxCell>
        <mxCell id="K03_Tw2up7xJoAG7XmoY-8" value="" style="shape=partialRectangle;html=1;whiteSpace=wrap;connectable=0;strokeColor=inherit;overflow=hidden;fillColor=none;top=0;left=0;bottom=0;right=0;pointerEvents=1;fontSize=16;" vertex="1" parent="K03_Tw2up7xJoAG7XmoY-6">
          <mxGeometry x="195" width="195" height="47" as="geometry">
            <mxRectangle width="195" height="47" as="alternateBounds" />
          </mxGeometry>
        </mxCell>
        <mxCell id="K03_Tw2up7xJoAG7XmoY-9" value="" style="shape=tableRow;horizontal=0;startSize=0;swimlaneHead=0;swimlaneBody=0;strokeColor=inherit;top=0;left=0;bottom=0;right=0;collapsible=0;dropTarget=0;fillColor=none;points=[[0,0.5],[1,0.5]];portConstraint=eastwest;fontSize=16;" vertex="1" parent="K03_Tw2up7xJoAG7XmoY-5">
          <mxGeometry y="77" width="390" height="46" as="geometry" />
        </mxCell>
        <mxCell id="K03_Tw2up7xJoAG7XmoY-10" value="address" style="shape=partialRectangle;html=1;whiteSpace=wrap;connectable=0;strokeColor=inherit;overflow=hidden;fillColor=none;top=0;left=0;bottom=0;right=0;pointerEvents=1;fontSize=16;" vertex="1" parent="K03_Tw2up7xJoAG7XmoY-9">
          <mxGeometry width="195" height="46" as="geometry">
            <mxRectangle width="195" height="46" as="alternateBounds" />
          </mxGeometry>
        </mxCell>
        <mxCell id="K03_Tw2up7xJoAG7XmoY-11" value="" style="shape=partialRectangle;html=1;whiteSpace=wrap;connectable=0;strokeColor=inherit;overflow=hidden;fillColor=none;top=0;left=0;bottom=0;right=0;pointerEvents=1;fontSize=16;" vertex="1" parent="K03_Tw2up7xJoAG7XmoY-9">
          <mxGeometry x="195" width="195" height="46" as="geometry">
            <mxRectangle width="195" height="46" as="alternateBounds" />
          </mxGeometry>
        </mxCell>
        <mxCell id="K03_Tw2up7xJoAG7XmoY-12" value="" style="shape=tableRow;horizontal=0;startSize=0;swimlaneHead=0;swimlaneBody=0;strokeColor=inherit;top=0;left=0;bottom=0;right=0;collapsible=0;dropTarget=0;fillColor=none;points=[[0,0.5],[1,0.5]];portConstraint=eastwest;fontSize=16;" vertex="1" parent="K03_Tw2up7xJoAG7XmoY-5">
          <mxGeometry y="123" width="390" height="47" as="geometry" />
        </mxCell>
        <mxCell id="K03_Tw2up7xJoAG7XmoY-13" value="age" style="shape=partialRectangle;html=1;whiteSpace=wrap;connectable=0;strokeColor=inherit;overflow=hidden;fillColor=none;top=0;left=0;bottom=0;right=0;pointerEvents=1;fontSize=16;" vertex="1" parent="K03_Tw2up7xJoAG7XmoY-12">
          <mxGeometry width="195" height="47" as="geometry">
            <mxRectangle width="195" height="47" as="alternateBounds" />
          </mxGeometry>
        </mxCell>
        <mxCell id="K03_Tw2up7xJoAG7XmoY-14" value="" style="shape=partialRectangle;html=1;whiteSpace=wrap;connectable=0;strokeColor=inherit;overflow=hidden;fillColor=none;top=0;left=0;bottom=0;right=0;pointerEvents=1;fontSize=16;" vertex="1" parent="K03_Tw2up7xJoAG7XmoY-12">
          <mxGeometry x="195" width="195" height="47" as="geometry">
            <mxRectangle width="195" height="47" as="alternateBounds" />
          </mxGeometry>
        </mxCell>
        <mxCell id="K03_Tw2up7xJoAG7XmoY-15" style="shape=tableRow;horizontal=0;startSize=0;swimlaneHead=0;swimlaneBody=0;strokeColor=inherit;top=0;left=0;bottom=0;right=0;collapsible=0;dropTarget=0;fillColor=none;points=[[0,0.5],[1,0.5]];portConstraint=eastwest;fontSize=16;" vertex="1" parent="K03_Tw2up7xJoAG7XmoY-5">
          <mxGeometry y="170" width="390" height="47" as="geometry" />
        </mxCell>
        <mxCell id="K03_Tw2up7xJoAG7XmoY-16" value="&lt;span style=&quot;font-family: Consolas, &amp;quot;Courier New&amp;quot;, monospace; font-size: 14px; white-space: pre; background-color: light-dark(rgb(18, 18, 18), rgb(18, 18, 18));&quot;&gt;&lt;font style=&quot;color: light-dark(rgb(255, 255, 255), rgb(255, 255, 255));&quot;&gt;__proto__&lt;/font&gt;&lt;/span&gt;" style="shape=partialRectangle;html=1;whiteSpace=wrap;connectable=0;strokeColor=inherit;overflow=hidden;fillColor=none;top=0;left=0;bottom=0;right=0;pointerEvents=1;fontSize=16;" vertex="1" parent="K03_Tw2up7xJoAG7XmoY-15">
          <mxGeometry width="195" height="47" as="geometry">
            <mxRectangle width="195" height="47" as="alternateBounds" />
          </mxGeometry>
        </mxCell>
        <mxCell id="K03_Tw2up7xJoAG7XmoY-17" value="" style="shape=partialRectangle;html=1;whiteSpace=wrap;connectable=0;strokeColor=inherit;overflow=hidden;fillColor=none;top=0;left=0;bottom=0;right=0;pointerEvents=1;fontSize=16;" vertex="1" parent="K03_Tw2up7xJoAG7XmoY-15">
          <mxGeometry x="195" width="195" height="47" as="geometry">
            <mxRectangle width="195" height="47" as="alternateBounds" />
          </mxGeometry>
        </mxCell>
        <mxCell id="K03_Tw2up7xJoAG7XmoY-18" value="" style="edgeStyle=elbowEdgeStyle;elbow=horizontal;endArrow=classic;html=1;curved=0;rounded=0;endSize=8;startSize=8;entryX=0.995;entryY=1;entryDx=0;entryDy=0;entryPerimeter=0;" edge="1" parent="1" target="K03_Tw2up7xJoAG7XmoY-12">
          <mxGeometry width="50" height="50" relative="1" as="geometry">
            <mxPoint x="262" y="371" as="sourcePoint" />
            <mxPoint x="472" y="154" as="targetPoint" />
            <Array as="points">
              <mxPoint x="520" y="210" />
              <mxPoint x="522" y="324" />
              <mxPoint x="312" y="351" />
            </Array>
          </mxGeometry>
        </mxCell>
        <mxCell id="K03_Tw2up7xJoAG7XmoY-19" value="new Person()创建的对象" style="shape=table;startSize=20;container=1;collapsible=0;childLayout=tableLayout;strokeColor=default;fontSize=16;fontColor=light-dark(#FFFFFF,#DB7093);" vertex="1" parent="1">
          <mxGeometry x="120" y="450" width="220" height="134" as="geometry" />
        </mxCell>
        <mxCell id="K03_Tw2up7xJoAG7XmoY-20" value="" style="shape=tableRow;horizontal=0;startSize=0;swimlaneHead=0;swimlaneBody=0;strokeColor=inherit;top=0;left=0;bottom=0;right=0;collapsible=0;dropTarget=0;fillColor=none;points=[[0,0.5],[1,0.5]];portConstraint=eastwest;fontSize=16;" vertex="1" parent="K03_Tw2up7xJoAG7XmoY-19">
          <mxGeometry y="20" width="220" height="57" as="geometry" />
        </mxCell>
        <mxCell id="K03_Tw2up7xJoAG7XmoY-21" value="&lt;div style=&quot;font-family: Consolas, &amp;quot;Courier New&amp;quot;, monospace; font-size: 14px; line-height: 19px; white-space: pre;&quot;&gt;&lt;span style=&quot;background-color: light-dark(rgb(18, 18, 18), rgb(18, 18, 18));&quot;&gt;__proto__&lt;/span&gt;&lt;/div&gt;" style="shape=partialRectangle;html=1;whiteSpace=wrap;connectable=0;strokeColor=inherit;overflow=hidden;fillColor=none;top=0;left=0;bottom=0;right=0;pointerEvents=1;fontSize=16;fontColor=#1A1A1A;" vertex="1" parent="K03_Tw2up7xJoAG7XmoY-20">
          <mxGeometry width="110" height="57" as="geometry">
            <mxRectangle width="110" height="57" as="alternateBounds" />
          </mxGeometry>
        </mxCell>
        <mxCell id="K03_Tw2up7xJoAG7XmoY-22" value="" style="shape=partialRectangle;html=1;whiteSpace=wrap;connectable=0;strokeColor=inherit;overflow=hidden;fillColor=none;top=0;left=0;bottom=0;right=0;pointerEvents=1;fontSize=16;" vertex="1" parent="K03_Tw2up7xJoAG7XmoY-20">
          <mxGeometry x="110" width="110" height="57" as="geometry">
            <mxRectangle width="110" height="57" as="alternateBounds" />
          </mxGeometry>
        </mxCell>
        <mxCell id="K03_Tw2up7xJoAG7XmoY-23" style="shape=tableRow;horizontal=0;startSize=0;swimlaneHead=0;swimlaneBody=0;strokeColor=inherit;top=0;left=0;bottom=0;right=0;collapsible=0;dropTarget=0;fillColor=none;points=[[0,0.5],[1,0.5]];portConstraint=eastwest;fontSize=16;" vertex="1" parent="K03_Tw2up7xJoAG7XmoY-19">
          <mxGeometry y="77" width="220" height="57" as="geometry" />
        </mxCell>
        <mxCell id="K03_Tw2up7xJoAG7XmoY-24" value="name" style="shape=partialRectangle;html=1;whiteSpace=wrap;connectable=0;strokeColor=inherit;overflow=hidden;fillColor=none;top=0;left=0;bottom=0;right=0;pointerEvents=1;fontSize=16;fontColor=#1A1A1A;" vertex="1" parent="K03_Tw2up7xJoAG7XmoY-23">
          <mxGeometry width="110" height="57" as="geometry">
            <mxRectangle width="110" height="57" as="alternateBounds" />
          </mxGeometry>
        </mxCell>
        <mxCell id="K03_Tw2up7xJoAG7XmoY-25" value="张三" style="shape=partialRectangle;html=1;whiteSpace=wrap;connectable=0;strokeColor=inherit;overflow=hidden;fillColor=none;top=0;left=0;bottom=0;right=0;pointerEvents=1;fontSize=16;" vertex="1" parent="K03_Tw2up7xJoAG7XmoY-23">
          <mxGeometry x="110" width="110" height="57" as="geometry">
            <mxRectangle width="110" height="57" as="alternateBounds" />
          </mxGeometry>
        </mxCell>
        <mxCell id="K03_Tw2up7xJoAG7XmoY-26" value="" style="edgeStyle=elbowEdgeStyle;elbow=horizontal;endArrow=classic;html=1;curved=0;rounded=0;endSize=8;startSize=8;entryX=1.003;entryY=1.065;entryDx=0;entryDy=0;entryPerimeter=0;" edge="1" parent="1" target="K03_Tw2up7xJoAG7XmoY-9">
          <mxGeometry width="50" height="50" relative="1" as="geometry">
            <mxPoint x="270" y="499" as="sourcePoint" />
            <mxPoint x="487.0999999999999" y="129.99699999999996" as="targetPoint" />
            <Array as="points">
              <mxPoint x="551" y="320" />
              <mxPoint x="286" y="361" />
            </Array>
          </mxGeometry>
        </mxCell>
        <mxCell id="K03_Tw2up7xJoAG7XmoY-27" value="" style="edgeStyle=elbowEdgeStyle;elbow=horizontal;endArrow=classic;html=1;curved=0;rounded=0;endSize=8;startSize=8;entryX=1;entryY=0.13;entryDx=0;entryDy=0;entryPerimeter=0;fontColor=light-dark(#000000,#DB7093);strokeColor=light-dark(#000000,#FF6EB4);" edge="1" parent="1" target="K03_Tw2up7xJoAG7XmoY-1">
          <mxGeometry width="50" height="50" relative="1" as="geometry">
            <mxPoint x="380" y="110" as="sourcePoint" />
            <mxPoint x="570" y="470" as="targetPoint" />
            <Array as="points">
              <mxPoint x="657" y="360" />
              <mxPoint x="392" y="401" />
            </Array>
          </mxGeometry>
        </mxCell>
        <mxCell id="K03_Tw2up7xJoAG7XmoY-36" value="Object函数的原型对象" style="shape=table;startSize=30;container=1;collapsible=0;childLayout=tableLayout;strokeColor=default;fontSize=16;fontColor=light-dark(#FFFFFF,#DB7093);" vertex="1" parent="1">
          <mxGeometry x="690" y="20" width="390" height="217" as="geometry" />
        </mxCell>
        <mxCell id="K03_Tw2up7xJoAG7XmoY-37" value="" style="shape=tableRow;horizontal=0;startSize=0;swimlaneHead=0;swimlaneBody=0;strokeColor=inherit;top=0;left=0;bottom=0;right=0;collapsible=0;dropTarget=0;fillColor=none;points=[[0,0.5],[1,0.5]];portConstraint=eastwest;fontSize=16;" vertex="1" parent="K03_Tw2up7xJoAG7XmoY-36">
          <mxGeometry y="30" width="390" height="47" as="geometry" />
        </mxCell>
        <mxCell id="K03_Tw2up7xJoAG7XmoY-38" value="constructor对象" style="shape=partialRectangle;html=1;whiteSpace=wrap;connectable=0;strokeColor=inherit;overflow=hidden;fillColor=none;top=0;left=0;bottom=0;right=0;pointerEvents=1;fontSize=16;fontColor=#1A1A1A;" vertex="1" parent="K03_Tw2up7xJoAG7XmoY-37">
          <mxGeometry width="195" height="47" as="geometry">
            <mxRectangle width="195" height="47" as="alternateBounds" />
          </mxGeometry>
        </mxCell>
        <mxCell id="K03_Tw2up7xJoAG7XmoY-39" value="" style="shape=partialRectangle;html=1;whiteSpace=wrap;connectable=0;strokeColor=inherit;overflow=hidden;fillColor=none;top=0;left=0;bottom=0;right=0;pointerEvents=1;fontSize=16;" vertex="1" parent="K03_Tw2up7xJoAG7XmoY-37">
          <mxGeometry x="195" width="195" height="47" as="geometry">
            <mxRectangle width="195" height="47" as="alternateBounds" />
          </mxGeometry>
        </mxCell>
        <mxCell id="K03_Tw2up7xJoAG7XmoY-40" value="" style="shape=tableRow;horizontal=0;startSize=0;swimlaneHead=0;swimlaneBody=0;strokeColor=inherit;top=0;left=0;bottom=0;right=0;collapsible=0;dropTarget=0;fillColor=none;points=[[0,0.5],[1,0.5]];portConstraint=eastwest;fontSize=16;" vertex="1" parent="K03_Tw2up7xJoAG7XmoY-36">
          <mxGeometry y="77" width="390" height="46" as="geometry" />
        </mxCell>
        <mxCell id="K03_Tw2up7xJoAG7XmoY-41" value="hasOwnProperty函数" style="shape=partialRectangle;html=1;whiteSpace=wrap;connectable=0;strokeColor=inherit;overflow=hidden;fillColor=none;top=0;left=0;bottom=0;right=0;pointerEvents=1;fontSize=16;" vertex="1" parent="K03_Tw2up7xJoAG7XmoY-40">
          <mxGeometry width="195" height="46" as="geometry">
            <mxRectangle width="195" height="46" as="alternateBounds" />
          </mxGeometry>
        </mxCell>
        <mxCell id="K03_Tw2up7xJoAG7XmoY-42" value="" style="shape=partialRectangle;html=1;whiteSpace=wrap;connectable=0;strokeColor=inherit;overflow=hidden;fillColor=none;top=0;left=0;bottom=0;right=0;pointerEvents=1;fontSize=16;" vertex="1" parent="K03_Tw2up7xJoAG7XmoY-40">
          <mxGeometry x="195" width="195" height="46" as="geometry">
            <mxRectangle width="195" height="46" as="alternateBounds" />
          </mxGeometry>
        </mxCell>
        <mxCell id="K03_Tw2up7xJoAG7XmoY-43" value="" style="shape=tableRow;horizontal=0;startSize=0;swimlaneHead=0;swimlaneBody=0;strokeColor=inherit;top=0;left=0;bottom=0;right=0;collapsible=0;dropTarget=0;fillColor=none;points=[[0,0.5],[1,0.5]];portConstraint=eastwest;fontSize=16;" vertex="1" parent="K03_Tw2up7xJoAG7XmoY-36">
          <mxGeometry y="123" width="390" height="47" as="geometry" />
        </mxCell>
        <mxCell id="K03_Tw2up7xJoAG7XmoY-44" value="toString函数" style="shape=partialRectangle;html=1;whiteSpace=wrap;connectable=0;strokeColor=inherit;overflow=hidden;fillColor=none;top=0;left=0;bottom=0;right=0;pointerEvents=1;fontSize=16;" vertex="1" parent="K03_Tw2up7xJoAG7XmoY-43">
          <mxGeometry width="195" height="47" as="geometry">
            <mxRectangle width="195" height="47" as="alternateBounds" />
          </mxGeometry>
        </mxCell>
        <mxCell id="K03_Tw2up7xJoAG7XmoY-45" value="" style="shape=partialRectangle;html=1;whiteSpace=wrap;connectable=0;strokeColor=inherit;overflow=hidden;fillColor=none;top=0;left=0;bottom=0;right=0;pointerEvents=1;fontSize=16;" vertex="1" parent="K03_Tw2up7xJoAG7XmoY-43">
          <mxGeometry x="195" width="195" height="47" as="geometry">
            <mxRectangle width="195" height="47" as="alternateBounds" />
          </mxGeometry>
        </mxCell>
        <mxCell id="K03_Tw2up7xJoAG7XmoY-46" style="shape=tableRow;horizontal=0;startSize=0;swimlaneHead=0;swimlaneBody=0;strokeColor=inherit;top=0;left=0;bottom=0;right=0;collapsible=0;dropTarget=0;fillColor=none;points=[[0,0.5],[1,0.5]];portConstraint=eastwest;fontSize=16;" vertex="1" parent="K03_Tw2up7xJoAG7XmoY-36">
          <mxGeometry y="170" width="390" height="47" as="geometry" />
        </mxCell>
        <mxCell id="K03_Tw2up7xJoAG7XmoY-47" value="&lt;span style=&quot;font-family: Consolas, &amp;quot;Courier New&amp;quot;, monospace; font-size: 14px; white-space: pre; background-color: light-dark(rgb(18, 18, 18), rgb(18, 18, 18));&quot;&gt;&lt;font style=&quot;color: light-dark(rgb(255, 255, 255), rgb(255, 255, 255));&quot;&gt;__proto__&lt;/font&gt;&lt;/span&gt;" style="shape=partialRectangle;html=1;whiteSpace=wrap;connectable=0;strokeColor=inherit;overflow=hidden;fillColor=none;top=0;left=0;bottom=0;right=0;pointerEvents=1;fontSize=16;" vertex="1" parent="K03_Tw2up7xJoAG7XmoY-46">
          <mxGeometry width="195" height="47" as="geometry">
            <mxRectangle width="195" height="47" as="alternateBounds" />
          </mxGeometry>
        </mxCell>
        <mxCell id="K03_Tw2up7xJoAG7XmoY-48" value="null" style="shape=partialRectangle;html=1;whiteSpace=wrap;connectable=0;strokeColor=inherit;overflow=hidden;fillColor=none;top=0;left=0;bottom=0;right=0;pointerEvents=1;fontSize=16;" vertex="1" parent="K03_Tw2up7xJoAG7XmoY-46">
          <mxGeometry x="195" width="195" height="47" as="geometry">
            <mxRectangle width="195" height="47" as="alternateBounds" />
          </mxGeometry>
        </mxCell>
        <mxCell id="K03_Tw2up7xJoAG7XmoY-49" value="" style="edgeStyle=elbowEdgeStyle;elbow=horizontal;endArrow=classic;html=1;curved=0;rounded=0;endSize=8;startSize=8;entryX=0.538;entryY=1.021;entryDx=0;entryDy=0;entryPerimeter=0;strokeColor=light-dark(#000000,#FFB7C5);" edge="1" parent="1">
          <mxGeometry width="50" height="50" relative="1" as="geometry">
            <mxPoint x="381" y="258" as="sourcePoint" />
            <mxPoint x="780.8200000000002" y="235.98699999999997" as="targetPoint" />
            <Array as="points">
              <mxPoint x="781" y="278" />
              <mxPoint x="782" y="429" />
              <mxPoint x="517" y="470" />
            </Array>
          </mxGeometry>
        </mxCell>
        <mxCell id="K03_Tw2up7xJoAG7XmoY-50" value="function Object () { }" style="shape=table;startSize=20;container=1;collapsible=0;childLayout=tableLayout;strokeColor=default;fontSize=16;fontColor=light-dark(#FFFFFF,#DB7093);" vertex="1" parent="1">
          <mxGeometry x="820" y="310" width="180" height="77" as="geometry" />
        </mxCell>
        <mxCell id="K03_Tw2up7xJoAG7XmoY-51" value="" style="shape=tableRow;horizontal=0;startSize=0;swimlaneHead=0;swimlaneBody=0;strokeColor=inherit;top=0;left=0;bottom=0;right=0;collapsible=0;dropTarget=0;fillColor=none;points=[[0,0.5],[1,0.5]];portConstraint=eastwest;fontSize=16;" vertex="1" parent="K03_Tw2up7xJoAG7XmoY-50">
          <mxGeometry y="20" width="180" height="57" as="geometry" />
        </mxCell>
        <mxCell id="K03_Tw2up7xJoAG7XmoY-52" value="&lt;div style=&quot;font-family: Consolas, &amp;quot;Courier New&amp;quot;, monospace; font-size: 14px; line-height: 19px; white-space: pre;&quot;&gt;&lt;span style=&quot;background-color: rgb(255, 255, 255);&quot;&gt;prototype&lt;/span&gt;&lt;/div&gt;" style="shape=partialRectangle;html=1;whiteSpace=wrap;connectable=0;strokeColor=inherit;overflow=hidden;fillColor=none;top=0;left=0;bottom=0;right=0;pointerEvents=1;fontSize=16;fontColor=#1A1A1A;" vertex="1" parent="K03_Tw2up7xJoAG7XmoY-51">
          <mxGeometry width="90" height="57" as="geometry">
            <mxRectangle width="90" height="57" as="alternateBounds" />
          </mxGeometry>
        </mxCell>
        <mxCell id="K03_Tw2up7xJoAG7XmoY-53" value="" style="shape=partialRectangle;html=1;whiteSpace=wrap;connectable=0;strokeColor=inherit;overflow=hidden;fillColor=none;top=0;left=0;bottom=0;right=0;pointerEvents=1;fontSize=16;" vertex="1" parent="K03_Tw2up7xJoAG7XmoY-51">
          <mxGeometry x="90" width="90" height="57" as="geometry">
            <mxRectangle width="90" height="57" as="alternateBounds" />
          </mxGeometry>
        </mxCell>
        <mxCell id="K03_Tw2up7xJoAG7XmoY-54" value="" style="edgeStyle=elbowEdgeStyle;elbow=horizontal;endArrow=classic;html=1;curved=0;rounded=0;endSize=8;startSize=8;entryX=1.003;entryY=1;entryDx=0;entryDy=0;entryPerimeter=0;" edge="1" parent="1" target="K03_Tw2up7xJoAG7XmoY-40">
          <mxGeometry width="50" height="50" relative="1" as="geometry">
            <mxPoint x="940" y="363" as="sourcePoint" />
            <mxPoint x="1161" y="50" as="targetPoint" />
            <Array as="points">
              <mxPoint x="1140" y="210" />
              <mxPoint x="956" y="225" />
            </Array>
          </mxGeometry>
        </mxCell>
        <mxCell id="K03_Tw2up7xJoAG7XmoY-55" value="" style="edgeStyle=elbowEdgeStyle;elbow=horizontal;endArrow=classic;html=1;curved=0;rounded=0;endSize=8;startSize=8;entryX=1;entryY=0.13;entryDx=0;entryDy=0;entryPerimeter=0;exitX=1;exitY=0.5;exitDx=0;exitDy=0;strokeColor=light-dark(#000000,#FF6EB4);" edge="1" parent="1" target="K03_Tw2up7xJoAG7XmoY-50">
          <mxGeometry width="50" height="50" relative="1" as="geometry">
            <mxPoint x="1002" y="73.5" as="sourcePoint" />
            <mxPoint x="922" y="340" as="targetPoint" />
            <Array as="points">
              <mxPoint x="1180" y="210" />
              <mxPoint x="797" y="422" />
            </Array>
          </mxGeometry>
        </mxCell>
      </root>
    </mxGraphModel>
  </diagram>
</mxfile>
